HIERARCHY
ROOT hip
{
  OFFSET 0 0 0
  CHANNELS 6 Xposition Yposition Zposition Zrotation Yrotation Xrotation
  JOINT abdomen
  {
    OFFSET 0 20.6881 -0.73152
    CHANNELS 3 Zrotation Xrotation Yrotation
    JOINT chest
    {
      OFFSET 0 11.7043 -0.48768
      CHANNELS 3 Zrotation Xrotation Yrotation
      JOINT neck
      {
        OFFSET 0 22.1894 -2.19456
        CHANNELS 3 Zrotation Xrotation Yrotation
        JOINT head
        {
          OFFSET -0.24384 7.07133 1.2192
          CHANNELS 3 Zrotation Xrotation Yrotation
          JOINT leftEye
          {
            OFFSET 4.14528 8.04674 8.04672
            CHANNELS 3 Zrotation Xrotation Yrotation
            End Site
            {
              OFFSET 1 0 0
            }
          }
          JOINT rightEye
          {
            OFFSET -3.6576 8.04674 8.04672
            CHANNELS 3 Zrotation Xrotation Yrotation
            End Site
            {
              OFFSET 1 0 0
            }
          }
        }
      }
      JOINT rCollar
      {
        OFFSET -2.68224 19.2634 -4.8768
        CHANNELS 3 Zrotation Xrotation Yrotation
        JOINT rShldr
        {
          OFFSET -8.77824 -1.95073 1.46304
          CHANNELS 3 Zrotation Xrotation Yrotation
          JOINT rForeArm
          {
            OFFSET -28.1742 -1.7115 0.48768
            CHANNELS 3 Zrotation Xrotation Yrotation
            JOINT rHand
            {
              OFFSET -22.5879 0.773209 7.07136
              CHANNELS 3 Zrotation Xrotation Yrotation
              JOINT rThumb1
              {
                OFFSET -1.2192 -0.487915 3.41376
                CHANNELS 3 Zrotation Xrotation Yrotation
                JOINT rThumb2
                {
                  OFFSET -3.37035 -0.52449 3.41376
                  CHANNELS 3 Zrotation Xrotation Yrotation
                  End Site
                  {
                    OFFSET -1.78271 -1.18214 1.43049
                  }
                }
              }
              JOINT rIndex1
              {
                OFFSET -7.75947 0.938293 5.60832
                CHANNELS 3 Zrotation Xrotation Yrotation
                JOINT rIndex2
                {
                  OFFSET -2.54057 -0.884171 1.56538
                  CHANNELS 3 Zrotation Xrotation Yrotation
                  End Site
                  {
                    OFFSET -1.62519 -0.234802 1.16502
                  }
                }
              }
              JOINT rMid1
              {
                OFFSET -8.24714 1.18213 3.41376
                CHANNELS 3 Zrotation Xrotation Yrotation
                JOINT rMid2
                {
                  OFFSET -3.10165 -0.590103 1.0647
                  CHANNELS 3 Zrotation Xrotation Yrotation
                  End Site
                  {
                    OFFSET -2.48547 -0.328903 0.83742
                  }
                }
              }
              JOINT rRing1
              {
                OFFSET -8.82822 0.546677 1.51678
                CHANNELS 3 Zrotation Xrotation Yrotation
                JOINT rRing2
                {
                  OFFSET -2.60934 -0.819778 -0.0198488
                  CHANNELS 3 Zrotation Xrotation Yrotation
                  End Site
                  {
                    OFFSET -2.33842 -0.294052 0.168128
                  }
                }
              }
              JOINT rPinky1
              {
                OFFSET -8.27202 -0.0477905 -0.4584
                CHANNELS 3 Zrotation Xrotation Yrotation
                JOINT rPinky2
                {
                  OFFSET -1.82734 -0.647385 -0.700984
                  CHANNELS 3 Zrotation Xrotation Yrotation
                  End Site
                  {
                    OFFSET -1.69225 -0.51767 -0.607171
                  }
                }
              }
            }
          }
        }
      }
      JOINT lCollar
      {
        OFFSET 2.68224 19.2634 -4.8768
        CHANNELS 3 Zrotation Xrotation Yrotation
        JOINT lShldr
        {
          OFFSET 8.77824 -1.95073 1.46304
          CHANNELS 3 Zrotation Xrotation Yrotation
          JOINT lForeArm
          {
            OFFSET 28.1742 -1.7115 0.48768
            CHANNELS 3 Zrotation Xrotation Yrotation
            JOINT lHand
            {
              OFFSET 22.5879 0.773209 7.07136
              CHANNELS 3 Zrotation Xrotation Yrotation
              JOINT lThumb1
              {
                OFFSET 1.2192 -0.487915 3.41376
                CHANNELS 3 Zrotation Xrotation Yrotation
                JOINT lThumb2
                {
                  OFFSET 3.37035 -0.52449 3.41376
                  CHANNELS 3 Zrotation Xrotation Yrotation
                  End Site
                  {
                    OFFSET 1.78271 -1.18214 1.43049
                  }
                }
              }
              JOINT lIndex1
              {
                OFFSET 7.75947 0.938293 5.60832
                CHANNELS 3 Zrotation Xrotation Yrotation
                JOINT lIndex2
                {
                  OFFSET 2.54057 -0.884171 1.56538
                  CHANNELS 3 Zrotation Xrotation Yrotation
                  End Site
                  {
                    OFFSET 1.62519 -0.234802 1.16502
                  }
                }
              }
              JOINT lMid1
              {
                OFFSET 8.24714 1.18213 3.41376
                CHANNELS 3 Zrotation Xrotation Yrotation
                JOINT lMid2
                {
                  OFFSET 3.10165 -0.590103 1.0647
                  CHANNELS 3 Zrotation Xrotation Yrotation
                  End Site
                  {
                    OFFSET 2.48547 -0.328903 0.83742
                  }
                }
              }
              JOINT lRing1
              {
                OFFSET 8.82822 0.546677 1.51678
                CHANNELS 3 Zrotation Xrotation Yrotation
                JOINT lRing2
                {
                  OFFSET 2.60934 -0.819778 -0.0198488
                  CHANNELS 3 Zrotation Xrotation Yrotation
                  End Site
                  {
                    OFFSET 2.33842 -0.294052 0.168128
                  }
                }
              }
              JOINT lPinky1
              {
                OFFSET 8.27202 -0.0477905 -0.4584
                CHANNELS 3 Zrotation Xrotation Yrotation
                JOINT lPinky2
                {
                  OFFSET 1.82734 -0.647385 -0.700984
                  CHANNELS 3 Zrotation Xrotation Yrotation
                  End Site
                  {
                    OFFSET 1.69225 -0.51767 -0.607171
                  }
                }
              }
            }
          }
        }
      }
    }
  }
  JOINT rButtock
  {
    OFFSET -8.77824 4.35084 1.2192
    CHANNELS 3 Zrotation Xrotation Yrotation
    JOINT rThigh
    {
      OFFSET 0 -1.70687 -2.19456
      CHANNELS 3 Zrotation Xrotation Yrotation
      JOINT rShin
      {
        OFFSET 0 -36.8199 0.73152
        CHANNELS 3 Zrotation Xrotation Yrotation
        JOINT rFoot
        {
          OFFSET 0.73152 -45.1104 -5.12064
          CHANNELS 3 Zrotation Xrotation Yrotation
          End Site
          {
            OFFSET -1.1221 -3.69964 12.103
          }
        }
      }
    }
  }
  JOINT lButtock
  {
    OFFSET 8.77824 4.35084 1.2192
    CHANNELS 3 Zrotation Xrotation Yrotation
    JOINT lThigh
    {
      OFFSET 0 -1.70687 -2.19456
      CHANNELS 3 Zrotation Xrotation Yrotation
      JOINT lShin
      {
        OFFSET 0 -36.8199 0.73152
        CHANNELS 3 Zrotation Xrotation Yrotation
        JOINT lFoot
        {
          OFFSET -0.73152 -45.1104 -5.12064
          CHANNELS 3 Zrotation Xrotation Yrotation
          End Site
          {
            OFFSET 1.1221 -3.69964 12.103
          }
        }
      }
    }
  }
}
MOTION
Frames:	8
Frame Time:	0.00833333
152.984 85.3326 4.11626 0.0 0.0 0.0 1.16875 -0.00493881 0.0322836 0.322753 -0.00472403 0.055915 -3.41513e-14 0.0 6.08778e-16 -1.02542e-13 3.18055e-15 1.77353e-15 -0.0 0.0 0.0 -0.0 0.0 0.0 -1.70971e-14 4.54254e-17 4.47265e-16 -3.56764e-13 5.5287e-16 5.96354e-15 -6.17967e-12 1.87215e-12 1.90833e-13 -7.06903e-11 -1.69265e-12 1.11001e-12 -1.66756e-10 3.94716e-13 2.8625e-12 -2.87986e-10 6.80639e-13 4.95371e-12 -1.66749e-10 3.95979e-13 2.85932e-12 7.73091 5.47488 0.417314 -1.66757e-10 3.95184e-13 2.85932e-12 2.90554 0.965183 0.102902 -1.66746e-10 3.95681e-13 2.86409e-12 10.2786 0.731801 0.0259123 -1.66763e-10 3.95979e-13 2.87522e-12 2.22167 -0.733487 -0.20892 -1.71944e-14 4.42606e-17 1.49089e-16 -3.60269e-13 4.41053e-16 4.37326e-15 -6.17907e-12 -1.8161e-12 1.81292e-13 -7.06988e-11 2.00504e-12 1.14818e-12 -1.66771e-10 4.15525e-13 2.86886e-12 -2.87995e-10 7.21986e-13 4.95133e-12 -1.66776e-10 4.16653e-13 2.87204e-12 -7.73091 5.47488 -0.417314 -1.6677e-10 4.15659e-13 2.86886e-12 -2.90554 0.965183 -0.102902 -1.66782e-10 4.15858e-13 2.86647e-12 -10.2786 0.731801 -0.0259123 -1.66763e-10 4.16653e-13 2.85614e-12 -2.22167 -0.733487 0.20892 -2.03217e-16 0.0 -3.88251e-19 1.35585 -5.84651 -0.122718 0.00113184 5.034 0.0414028 -0.480864 0.811091 0.0710893 2.03217e-16 0.0 3.88251e-19 0.426427 -1.91991 0.00997216 0.00898954 -2.0786 0.0740839 0.459281 3.99698 -0.132487
148.202 83.6049 -1.10055 88.7832 -87.9288 -84.2318 -1.15233 -1.07524 1.93609 2.04586 -1.36117 0.694752 -2.99454 5.42229 -1.74951 5.32934 -7.42606 -2.53342 -0.0 0.0 0.0 -0.0 0.0 0.0 1.51515e-14 1.67433e-13 1.53705e-14 24.39 3.77802 -1.87716 -7.20704 -4.21529 10.0494 0.0153945 2.75486 0.38556 -2.99557e-10 -6.192e-11 2.54756e-10 -5.15572e-10 -1.09385e-10 4.4486e-10 -2.99549e-10 -6.19187e-11 2.54748e-10 7.73091 5.47488 0.417314 -2.99556e-10 -6.19197e-11 2.54751e-10 2.90554 0.965183 0.102902 -2.99546e-10 -6.19201e-11 2.54755e-10 10.2786 0.731801 0.0259123 -2.99561e-10 -6.19186e-11 2.54763e-10 2.22167 -0.733487 -0.20892 1.50608e-14 1.67434e-13 1.51142e-14 -23.6401 -3.83322 4.82755 13.628 -10.702 -14.227 -1.59337 30.9437 -2.67264 3.20674e-10 -9.18322e-10 -3.18427e-10 5.02881e-10 -1.4496e-09 -5.94346e-10 3.20668e-10 -9.18322e-10 -3.18419e-10 -7.73091 5.47488 -0.417314 3.20675e-10 -9.18322e-10 -3.18426e-10 -2.90554 0.965183 -0.102902 3.20666e-10 -9.18321e-10 -3.18428e-10 -10.2786 0.731801 -0.0259123 3.20681e-10 -9.1832e-10 -3.18438e-10 -2.22167 -0.733487 0.20892 -2.03217e-16 0.0 -3.88251e-19 -1.01442 -9.54224 -0.03195 0.0133317 12.6042 0.17745 -0.948109 -4.71049 -3.30669 2.03217e-16 0.0 3.88251e-19 -1.48709 -5.75197 0.381651 -0.0208319 6.91552 -0.0932785 0.673462 -3.01407 1.65263
148.175 83.5884 -1.00754 82.7254 -87.8043 -78.6832 -3.54258 -2.24291 3.97965 3.90342 -2.79214 1.37993 -5.76331 11.1461 -3.65741 10.1892 -15.2465 -5.3724 -0.0 0.0 0.0 -0.0 0.0 0.0 5.1432e-14 3.55684e-13 3.18273e-14 50.4542 7.75262 -3.90475 -13.2503 -8.24965 20.8568 -0.00880305 5.65434 0.794389 -4.41977e-10 -1.13191e-10 5.47575e-10 -7.59438e-10 -2.00655e-10 9.56047e-10 -4.41968e-10 -1.13189e-10 5.4756e-10 7.73091 5.47488 0.417314 -4.41976e-10 -1.1319e-10 5.47568e-10 2.90554 0.965183 0.102902 -4.41966e-10 -1.13192e-10 5.4757e-10 10.2786 0.731801 0.0259123 -4.41979e-10 -1.13189e-10 5.47574e-10 2.22167 -0.733487 -0.20892 5.13492e-14 3.55687e-13 3.16161e-14 -47.8613 -7.99716 10.0394 22.3459 -19.9835 -30.9419 4.04535 64.7357 -11.3563 8.00944e-10 -1.94695e-09 -6.90687e-10 1.27583e-09 -3.07552e-09 -1.28639e-09 8.00937e-10 -1.94695e-09 -6.90672e-10 -7.73091 5.47488 -0.417314 8.00946e-10 -1.94695e-09 -6.90683e-10 -2.90554 0.965183 -0.102902 8.00938e-10 -1.94695e-09 -6.90686e-10 -10.2786 0.731801 -0.0259123 8.0095e-10 -1.94695e-09 -6.90696e-10 -2.22167 -0.733487 0.20892 -2.03217e-16 0.0 -3.88251e-19 -3.51093 -13.4763 0.0679046 -0.0155486 20.5976 0.333668 -2.15585 -10.4782 -6.96381 2.03217e-16 0.0 3.88251e-19 -3.45433 -9.82743 0.800754 0.00664303 16.4177 -0.280007 1.37906 -10.4065 3.58723
148.168 83.5647 -0.944672 77.5961 -87.7498 -74.081 -5.58123 -3.20152 5.75167 5.58301 -4.07194 1.97683 -7.95684 16.2049 -5.44184 13.8919 -22.0969 -8.13782 -0.0 0.0 0.0 -0.0 0.0 0.0 7.96489e-14 5.02209e-13 4.52169e-14 73.9237 11.2849 -5.73039 -17.3444 -11.0906 30.6991 -0.0660316 8.26309 1.16746 -5.65157e-10 -1.8655e-10 7.58544e-10 -9.70746e-10 -3.29517e-10 1.32467e-09 -5.65148e-10 -1.86548e-10 7.58524e-10 7.73091 5.47488 0.417314 -5.65156e-10 -1.8655e-10 7.58535e-10 2.90554 0.965183 0.102902 -5.65147e-10 -1.86552e-10 7.58537e-10 10.2786 0.731801 0.0259123 -5.65157e-10 -1.86548e-10 7.58537e-10 2.22167 -0.733487 -0.20892 7.95712e-14 5.02214e-13 4.50445e-14 -68.974 -11.1706 14.7355 25.4376 -23.9721 -46.9877 104.125 82.5348 -112.855 1.29556e-09 -2.7558e-09 -9.6102e-10 2.08463e-09 -4.35025e-09 -1.79294e-09 1.29556e-09 -2.7558e-09 -9.61e-10 -7.73091 5.47488 -0.417314 1.29557e-09 -2.7558e-09 -9.61014e-10 -2.90554 0.965183 -0.102902 1.29556e-09 -2.7558e-09 -9.61017e-10 -10.2786 0.731801 -0.0259123 1.29557e-09 -2.75579e-09 -9.61027e-10 -2.22167 -0.733487 0.20892 -2.03217e-16 0.0 -3.88251e-19 -5.71853 -16.9336 0.156418 -0.0832469 27.7438 0.493803 -3.88586 -15.5299 -10.4129 2.03217e-16 0.0 3.88251e-19 -5.16125 -13.4139 1.15065 0.0889191 24.903 -0.469527 2.45538 -16.9673 5.45341
148.155 83.5367 -0.889067 72.808 -87.7042 -69.7946 -6.90849 -3.65317 6.83572 6.75173 -4.97594 2.34875 -9.45713 19.6615 -6.73089 16.2566 -26.7002 -10.1947 -0.0 0.0 0.0 -0.0 0.0 0.0 8.77067e-14 5.44419e-13 5.09386e-14 90.3618 13.76 -6.95584 -19.5487 -12.4546 37.5953 -0.127954 10.1464 1.44123 -6.40238e-10 -3.15129e-10 7.64892e-10 -1.10066e-09 -5.52364e-10 1.33689e-09 -6.40229e-10 -3.15128e-10 7.64869e-10 7.73091 5.47488 0.417314 -6.40236e-10 -3.1513e-10 7.64882e-10 2.90554 0.965183 0.102902 -6.40228e-10 -3.15132e-10 7.64883e-10 10.2786 0.731801 0.0259123 -6.40237e-10 -3.15128e-10 7.64882e-10 2.22167 -0.733487 -0.20892 8.76271e-14 5.44424e-13 5.07895e-14 -83.8834 -12.232 17.8414 26.0493 -23.5618 -56.971 142.498 73.5838 -151.509 1.82606e-09 -3.01518e-09 -9.76535e-10 2.9831e-09 -4.74703e-09 -1.83577e-09 1.82606e-09 -3.01518e-09 -9.76513e-10 -7.73091 5.47488 -0.417314 1.82606e-09 -3.01518e-09 -9.76529e-10 -2.90554 0.965183 -0.102902 1.82606e-09 -3.01518e-09 -9.76532e-10 -10.2786 0.731801 -0.0259123 1.82607e-09 -3.01518e-09 -9.76542e-10 -2.22167 -0.733487 0.20892 -2.03217e-16 0.0 -3.88251e-19 -7.23158 -19.1992 0.210068 -0.1594 32.7723 0.625051 -5.50256 -19.0037 -13.0054 2.03217e-16 0.0 3.88251e-19 -6.34038 -15.7803 1.301 0.185602 30.8467 -0.62475 3.49752 -21.5165 6.90974
148.138 83.5042 -0.819344 67.3733 -87.6251 -64.8315 -7.27965 -3.39405 6.90486 7.17245 -5.35329 2.38931 -10.401 20.9165 -7.18632 17.6213 -28.2632 -10.8434 -0.0 0.0 0.0 -0.0 0.0 0.0 6.27318e-14 4.2747e-13 4.4772e-14 96.7021 14.8093 -7.25666 -20.2252 -12.7534 40.1135 -0.161886 11.0471 1.57356 -6.84503e-10 -5.84612e-10 3.82812e-10 -1.18069e-09 -1.0164e-09 6.73432e-10 -6.84491e-10 -5.84612e-10 3.82792e-10 7.73091 5.47488 0.417314 -6.845e-10 -5.84614e-10 3.82802e-10 2.90554 0.965183 0.102902 -6.84492e-10 -5.84616e-10 3.82804e-10 10.2786 0.731801 0.0259123 -6.84501e-10 -5.84613e-10 3.82805e-10 2.22167 -0.733487 -0.20892 6.26348e-14 4.27473e-13 4.46209e-14 -90.8619 -10.2424 18.5251 25.8618 -22.1339 -57.834 90.9056 83.115 -99.5106 2.59362e-09 -2.40823e-09 -5.5121e-10 4.33446e-09 -3.75703e-09 -1.08037e-09 2.59361e-09 -2.40823e-09 -5.5119e-10 -7.73091 5.47488 -0.417314 2.59362e-09 -2.40823e-09 -5.51203e-10 -2.90554 0.965183 -0.102902 2.59362e-09 -2.40823e-09 -5.51207e-10 -10.2786 0.731801 -0.0259123 2.59362e-09 -2.40823e-09 -5.51216e-10 -2.22167 -0.733487 0.20892 -2.03217e-16 0.0 -3.88251e-19 -7.76539 -19.7403 0.204266 -0.197614 34.8028 0.686238 -6.30547 -20.4605 -14.1765 2.03217e-16 0.0 3.88251e-19 -6.82763 -16.42 1.09724 0.234742 33.2301 -0.695113 4.01312 -23.3018 7.59227
148.114 83.4888 -0.768607 61.0785 -87.5803 -59.0823 -6.96397 -2.6274 6.25231 7.05308 -5.35485 2.19304 -11.0281 20.6113 -7.00776 18.4518 -27.6916 -10.3768 -0.0 0.0 0.0 -0.0 0.0 0.0 1.43912e-14 1.97462e-13 3.01687e-14 95.7739 14.8478 -6.87866 -20.0136 -12.5579 39.4721 -0.166652 11.2447 1.60234 -7.05015e-10 -9.51711e-10 -2.71861e-10 -1.22203e-09 -1.64748e-09 -4.6423e-10 -7.05003e-10 -9.51713e-10 -2.71876e-10 7.73091 5.47488 0.417314 -7.05012e-10 -9.51714e-10 -2.71869e-10 2.90554 0.965183 0.102902 -7.05005e-10 -9.51716e-10 -2.71866e-10 10.2786 0.731801 0.0259123 -7.05014e-10 -9.51714e-10 -2.71862e-10 2.22167 -0.733487 -0.20892 1.42658e-14 1.97461e-13 2.99978e-14 -92.1158 -6.09107 17.5645 24.8622 -20.2331 -52.5637 2.17992 59.7308 -9.02199 3.5216e-09 -1.18708e-09 1.84998e-10 5.99372e-09 -1.78399e-09 2.3809e-10 3.5216e-09 -1.18708e-09 1.85011e-10 -7.73091 5.47488 -0.417314 3.5216e-09 -1.18708e-09 1.85003e-10 -2.90554 0.965183 -0.102902 3.5216e-09 -1.18708e-09 1.84999e-10 -10.2786 0.731801 -0.0259123 3.5216e-09 -1.18708e-09 1.84992e-10 -2.22167 -0.733487 0.20892 -2.03217e-16 0.0 -3.88251e-19 -7.60197 -19.0522 0.155771 -0.19443 34.6935 0.687494 -6.35429 -20.525 -14.2549 2.03217e-16 0.0 3.88251e-19 -6.81974 -15.8267 0.64276 0.230253 33.0708 -0.69186 4.02369 -23.1309 7.65569
148.085 83.501 -0.725097 53.1529 -87.5307 -51.6747 -6.39169 -1.67174 5.38812 6.72455 -5.20905 1.92364 -11.4293 19.684 -6.58443 18.9107 -26.3053 -9.50851 -0.0 0.0 0.0 -0.0 0.0 0.0 -3.55996e-14 -5.67833e-14 1.40357e-14 91.9511 14.4475 -6.25711 -19.4409 -12.1584 37.6062 -0.157187 11.11 1.58191 -6.57592e-10 -1.25611e-09 -8.72441e-10 -1.1454e-09 -2.17002e-09 -1.50886e-09 -6.57578e-10 -1.25611e-09 -8.7245e-10 7.73091 5.47488 0.417314 -6.57588e-10 -1.25611e-09 -8.72448e-10 2.90554 0.965183 0.102902 -6.57583e-10 -1.25611e-09 -8.72442e-10 10.2786 0.731801 0.0259123 -6.57591e-10 -1.25611e-09 -8.72435e-10 2.22167 -0.733487 -0.20892 -3.57485e-14 -5.67869e-14 1.38435e-14 -90.6635 -1.53071 16.1304 22.9326 -17.1878 -45.6874 -1.29489 25.6423 -2.25577 4.21483e-09 1.24389e-10 9.11003e-10 7.25235e-09 3.30062e-10 1.54336e-09 4.21483e-09 1.2439e-10 9.1101e-10 -7.73091 5.47488 -0.417314 4.21483e-09 1.24389e-10 9.11008e-10 -2.90554 0.965183 -0.102902 4.21483e-09 1.24389e-10 9.11003e-10 -10.2786 0.731801 -0.0259123 4.21483e-09 1.24388e-10 9.10997e-10 -2.22167 -0.733487 0.20892 -2.03217e-16 0.0 -3.88251e-19 -7.18878 -17.9623 0.101308 -0.175275 33.7826 0.664762 -6.06411 -19.9805 -13.8542 2.03217e-16 0.0 3.88251e-19 -6.60687 -14.7712 0.185559 0.203874 31.8985 -0.658808 3.82634 -22.1811 7.4692
